<svg width="62" height="70" viewBox="0 0 62 70" fill="none" xmlns="http://www.w3.org/2000/svg">
<path d="M11.7911 0H33.7764C33.8643 0.0218989 33.9509 0.053588 34.0403 0.064151C39.7611 0.754354 44.4862 3.34693 48.1022 7.77851C51.5752 12.0344 53.1855 16.9817 52.818 22.5113C52.7979 22.812 52.8611 23.0207 53.0873 23.2299C53.6754 23.774 54.2604 24.3251 54.8043 24.9122C57.3017 27.6079 59.1787 30.6758 60.3484 34.1711C61.0102 36.149 61.3864 38.184 61.6688 40.2418V44.8346C61.5869 45.4656 61.5204 46.0988 61.4207 46.7267C60.9182 49.8899 59.8565 52.8584 58.299 55.6542C56.2289 59.3688 53.396 62.3896 49.8981 64.7828C46.5035 67.1048 42.7442 68.5125 38.6804 69.1249C36.9821 69.381 35.2788 69.5601 33.5697 69.3027C29.3515 68.6681 26.5419 66.1268 24.6254 62.4957C23.4098 60.1927 23.1125 57.6422 23.039 55.0782C22.9718 52.7288 22.9707 50.3774 22.9617 48.027C22.9229 36.3819 22.9375 24.7368 23.0055 13.0917C23.0104 12.3835 22.9947 11.6623 22.8692 10.9688C21.9678 5.98588 17.696 2.55058 12.5487 2.96434C9.99164 3.16891 7.86952 4.27674 6.11075 6.0928C4.23421 8.03356 3.52014 10.4193 3.5222 13.0793C3.53216 26.875 3.53388 40.6706 3.52735 54.466C3.52735 55.9054 3.54436 57.3474 3.73583 58.7747C4.16025 61.9356 5.44924 64.7003 7.63398 67.0368C8.41454 67.8715 9.25927 68.6259 10.3534 69.0698C10.2357 69.1352 10.1473 69.1558 10.062 69.1471C9.89927 69.1316 9.73794 69.1041 9.57933 69.0646C7.559 68.529 5.91387 67.3681 4.49964 65.8862C1.83738 63.096 0.565142 59.7797 0.576739 55.8882C0.621062 41.2731 0.593231 26.6569 0.596839 12.0413C0.596839 11.5871 0.600189 11.1249 0.679044 10.68C1.43641 6.40145 3.77886 3.3003 7.64481 1.32553C8.95828 0.654392 10.3573 0.280049 11.7911 0ZM21.6171 2.98264C21.9982 3.35492 22.4254 3.62956 22.6517 4.02039C23.3403 5.20963 24.3491 5.39796 25.6343 5.37117C28.3622 5.31449 31.1018 5.18644 33.8218 5.54507C37.713 6.05802 40.9599 7.85708 43.5111 10.7825C46.5321 14.2498 47.8185 18.3467 47.2647 22.9382C46.6746 27.8305 44.1525 31.4917 39.9204 33.9686C37.345 35.4763 34.5255 36.1204 31.5517 36.1204C29.8749 36.1204 28.1981 36.1291 26.5215 36.116C26.1046 36.1129 25.9141 36.2549 25.9378 36.6874C25.9597 37.0873 25.9688 37.4913 25.9355 37.8893C25.892 38.4126 26.0917 38.5978 26.6207 38.5911C28.4429 38.5679 30.2661 38.5568 32.088 38.5883C35.2355 38.6426 38.1619 37.7777 40.8715 36.2881C47.0047 32.9159 50.7085 26.3573 49.7002 18.8833C48.7467 11.8053 44.7888 6.93295 38.2296 4.16209C36.1918 3.30133 34.0521 2.9172 31.8375 2.919C28.5029 2.92183 25.1681 2.90303 21.8335 2.8953C21.8013 2.89581 21.7683 2.92106 21.6171 2.98264ZM29.2059 63.8875C30.2625 64.9953 31.469 65.7334 32.891 66.1165C34.5433 66.561 36.2124 66.4643 37.8799 66.241C41.9139 65.6999 45.5729 64.2144 48.8766 61.8452C52.399 59.3204 54.9685 56.0198 56.7319 52.0845C58.1137 49.0006 58.7893 45.7544 58.7677 42.3758C58.7437 38.8006 57.8887 35.4139 56.2938 32.2216C55.3145 30.2628 54.0553 28.4569 52.5557 26.8607C52.256 26.5408 52.123 26.5619 52.0006 26.9926C51.8519 27.5172 51.6886 28.0451 51.4574 28.5369C51.1814 29.1238 51.2912 29.5507 51.6945 30.0598C55.4568 34.809 56.7074 40.2505 55.7235 46.1449C54.7247 52.1313 51.5888 56.8517 46.5473 60.2592C43.5758 62.2688 40.2806 63.3951 36.7033 63.6927C34.4289 63.8821 32.1504 63.755 29.8744 63.7973C29.6783 63.7996 29.4755 63.7489 29.2067 63.8862L29.2059 63.8875ZM29.3572 8.34273C28.079 8.34273 26.9671 8.35793 25.8561 8.33551C25.3781 8.32598 25.292 8.49988 25.4232 8.9255C25.559 9.35952 25.6623 9.80301 25.7324 10.2523C25.8049 10.7287 26.0061 10.924 26.5194 10.9152C28.2682 10.8853 30.0179 10.8969 31.7669 10.9062C33.9746 10.918 35.9686 11.6307 37.7176 12.9333C40.4422 14.9598 41.808 17.7415 41.808 21.1181C41.8054 24.8538 40.0521 27.6133 36.785 29.3989C35.1321 30.3022 33.3249 30.6098 31.4605 30.6194C29.8571 30.6284 28.2535 30.6194 26.6501 30.6235C25.9852 30.6255 25.9476 30.6704 25.944 31.3477C25.942 31.7303 25.9654 32.1144 25.9383 32.4949C25.9038 32.979 26.1187 33.1336 26.5805 33.129C28.53 33.1097 30.4797 33.1102 32.4302 33.1084C33.144 33.1084 33.8475 33.0133 34.5433 32.869C40.988 31.5335 44.9841 26.1391 44.3442 19.6444C43.8358 14.4858 39.68 9.85788 34.5232 8.6591C32.7549 8.24869 30.9714 8.37029 29.3572 8.34144V8.34273ZM31.1886 58.4104C29.8762 58.4104 28.5637 58.4153 27.2516 58.4076C26.8204 58.405 26.6362 58.548 26.781 59.0027C26.9138 59.4189 27.0257 59.8416 27.116 60.269C27.2116 60.7237 27.4593 60.8788 27.9244 60.8742C30.0375 60.8538 32.154 60.8999 34.2673 60.8536C35.8854 60.8175 37.5022 60.7088 39.0896 60.3252C42.9568 59.3912 46.202 57.4082 48.7449 54.3815C51.8774 50.6543 53.311 46.3207 53.0113 41.4302C52.8106 38.1567 51.7187 35.2161 49.8465 32.5418C49.6298 32.2327 49.5095 32.3133 49.3376 32.5624C49.0686 32.9522 48.8207 33.3673 48.4929 33.7025C48.0986 34.1057 48.1282 34.4169 48.4187 34.8824C50.4264 38.1029 51.0049 41.6103 50.3681 45.3221C49.779 48.7581 48.1777 51.682 45.6495 54.0659C43.2251 56.3514 40.35 57.7638 37.0285 58.2205C35.0881 58.4869 33.1363 58.3859 31.1886 58.4091V58.4104ZM31.1685 52.8494C29.4708 52.8494 28.0504 52.8478 26.629 52.8494C26.3548 52.8494 26.0502 52.8167 26.0852 53.2528C26.1231 53.7243 26.1538 54.1968 26.1736 54.6698C26.1955 55.1941 26.3952 55.4226 26.9805 55.4152C29.567 55.3822 32.1542 55.4105 34.7412 55.394C35.4128 55.3897 36.0933 55.36 36.7536 55.2464C41.0609 54.5036 44.3012 52.237 46.2393 48.3008C48.0986 44.5244 48.1604 40.7065 46.1563 36.9237C45.9278 36.4919 45.7482 36.5228 45.4302 36.7969C45.0722 37.1061 44.6983 37.4019 44.3012 37.6569C43.935 37.8919 43.8817 38.124 44.0873 38.5092C44.798 39.8393 45.0756 41.2836 45.063 42.7766C45.0217 47.6096 41.4359 51.8041 36.6716 52.6425C34.7523 52.9797 32.8186 52.7842 31.1685 52.8481V52.8494ZM29.5912 27.6414C30.5483 27.5955 31.73 27.6839 32.9134 27.5448C36.8368 27.0833 39.2797 23.6753 38.8177 20.2975C38.4108 17.3231 36.0449 14.5412 33.0618 14.0609C30.841 13.7031 28.589 13.9579 26.3512 13.9141C26.0492 13.9081 25.942 14.096 25.9435 14.3778C25.9468 14.9423 25.9541 15.5073 25.9399 16.0715C25.9304 16.4466 26.0914 16.5968 26.4622 16.5904C27.1724 16.5783 27.8834 16.5736 28.5936 16.5904C29.9574 16.6239 31.327 16.4768 32.6843 16.7079C34.5219 17.0206 35.9859 18.508 36.2016 20.2733C36.4379 22.2073 35.4285 23.9678 33.6275 24.703C32.8946 25.0024 32.1109 25.0761 31.3224 25.0766C29.7373 25.0779 28.1527 25.0918 26.5671 25.0722C26.0899 25.0663 25.9069 25.2356 25.9365 25.7099C25.9624 26.1646 25.963 26.6205 25.9381 27.0753C25.9172 27.5095 26.1113 27.6537 26.5246 27.647C27.4719 27.6295 28.4194 27.6401 29.5912 27.6401V27.6414ZM30.9763 49.8443C32.2155 49.8443 33.4548 49.8492 34.6941 49.8443C37.9686 49.8291 40.2345 48.2413 41.5251 45.2978C42.2876 43.5593 42.2466 41.7559 41.5168 39.9805C41.3434 39.558 41.1277 39.4807 40.7236 39.6853C40.3328 39.8814 39.9249 40.0415 39.505 40.1634C39.0239 40.3044 38.8911 40.4538 39.1323 40.9923C40.4097 43.8438 39.2035 46.8485 35.721 47.301C34.1444 47.5055 32.5539 47.36 30.9701 47.3816C29.494 47.4019 28.0177 47.3976 26.5416 47.3798C26.0917 47.3746 25.9095 47.5372 25.9376 47.9881C25.9654 48.3882 25.9654 48.7898 25.9376 49.1899C25.8979 49.6972 26.1087 49.8598 26.6037 49.8536C28.0602 49.8291 29.5185 49.8433 30.9763 49.843V49.8443ZM30.8887 41.5923V41.6412C29.468 41.6412 28.0473 41.6495 26.6269 41.6369C26.12 41.6325 25.8945 41.8218 25.935 42.3515C25.9704 42.8241 25.9704 43.2986 25.935 43.7711C25.8966 44.2902 26.0778 44.4773 26.6148 44.4724C29.1286 44.4497 31.6429 44.4683 34.157 44.4574C34.7201 44.4551 35.2893 44.4245 35.832 44.2475C36.4469 44.0468 36.6966 43.6356 36.6332 42.9925C36.5355 41.9993 36.1292 41.6173 35.0435 41.5982C33.6584 41.5724 32.2733 41.591 30.8887 41.591V41.5923ZM29.1675 22.1566C29.9847 22.1051 30.9889 22.2488 31.9847 22.0793C32.8474 21.9314 33.2474 21.495 33.2054 20.7566C33.1675 20.0909 32.6748 19.6189 31.8576 19.6037C30.055 19.5702 28.2517 19.5905 26.4486 19.5831C26.0726 19.5815 25.9306 19.7611 25.9401 20.1241C25.9533 20.6154 25.9605 21.1083 25.9378 21.5988C25.9177 22.0368 26.1136 22.1731 26.5267 22.1635C27.3459 22.1437 28.1659 22.1566 29.1675 22.1566Z" fill="white"/>
<path d="M16.1349 69.0747C15.6267 69.1976 15.1837 69.0157 14.7485 68.8474C11.7572 67.6912 9.62808 65.5685 8.0649 62.8288C6.94109 60.8597 6.38034 58.7512 6.38344 56.4653C6.40251 41.8136 6.40628 27.162 6.39477 12.5105C6.39477 9.15094 8.69213 6.32108 11.9793 5.60099C16.0468 4.70932 20.1436 7.81922 20.3714 11.9519C20.4144 12.7354 20.4258 13.5173 20.4258 14.3005C20.427 28.1322 20.4259 41.9638 20.4224 55.7952C20.4224 57.9245 20.6154 60.0175 21.3854 62.0201C22.3389 64.4968 23.7289 66.6658 25.884 68.2806C26.0888 68.4327 26.301 68.5744 26.52 68.7052C26.721 68.8266 26.9339 68.9283 27.2065 69.0734C26.9261 69.1988 26.7115 69.1234 26.4937 69.069C24.4195 68.5537 22.762 67.3457 21.3262 65.8362C18.7417 63.1205 17.4223 59.8985 17.4301 56.1056C17.4574 41.6363 17.4606 27.167 17.4396 12.6975C17.4396 10.5388 16.1748 8.93916 14.1566 8.51844C11.8141 8.02894 9.49021 9.84268 9.41368 12.2227C9.39306 12.8598 9.38232 13.4973 9.38147 14.1354C9.37958 27.8032 9.37958 41.4708 9.38147 55.1382C9.38147 56.9236 9.39615 58.7067 9.85614 60.4552C10.6073 63.3122 12.012 65.7741 14.1939 67.7808C14.7717 68.3126 15.4381 68.7083 16.1349 69.0747Z" fill="white"/>
<path d="M21.8534 69.0703C21.4444 69.1867 21.204 69.1393 20.9597 69.0767C19.2739 68.6441 17.8519 67.729 16.5825 66.5859C14.1658 64.4086 12.564 61.7522 12.0442 58.507C11.9415 57.8409 11.8915 57.1678 11.8948 56.4938C11.8865 42.0074 11.8847 27.5208 11.8893 13.034C11.8893 12.5419 11.8729 12.0411 12.1862 11.617C12.5485 11.1275 13.2358 10.8755 13.7839 11.0188C14.332 11.162 14.7985 11.7144 14.8686 12.3343C14.8992 12.6045 14.8871 12.8802 14.8871 13.1533C14.8899 27.6947 14.8953 42.236 14.9034 56.7772C14.9095 60.4452 16.1777 63.7076 18.4796 66.5385C19.3452 67.6033 20.3742 68.5437 21.8534 69.0703Z" fill="white"/>
</svg>
