<svg width="152" height="25" viewBox="0 0 152 25" fill="none" xmlns="http://www.w3.org/2000/svg">
<path d="M38.0564 24.1778C38.0564 24.14 38.4211 23.2834 38.8667 22.2742L39.6771 20.4391L39.9475 20.4163L40.2179 20.3935L41.0258 22.2213C41.4701 23.2266 41.8504 24.0914 41.8709 24.1431C41.8969 24.2086 41.8195 24.2372 41.6161 24.2372C41.3285 24.2372 41.3206 24.2294 41.1109 23.7483L40.898 23.2594L39.9473 23.2597L38.9965 23.26L38.8036 23.7297C38.6206 24.1754 38.5967 24.2005 38.3336 24.2227C38.1811 24.2356 38.0564 24.2149 38.0564 24.1776V24.1778ZM40.6888 22.78C40.6888 22.7645 40.5664 22.4852 40.4169 22.1595C40.2674 21.8337 40.1063 21.4577 40.0589 21.3238L39.9729 21.0804L39.6163 21.8879C39.4202 22.332 39.2597 22.7208 39.2597 22.7518C39.2598 22.7828 39.5813 22.8082 39.9743 22.8082C40.3672 22.8082 40.6888 22.7955 40.6888 22.78V22.78ZM43.3211 22.3193V20.4015H43.5844H43.8476V22.0561V23.7107H44.9005H45.9535V23.974V24.2372H44.6373H43.3211V22.3193ZM47.3825 22.3193V20.4015H47.6457H47.909V22.0561V23.7107H48.9619H50.0148V23.974V24.2372H48.6987H47.3825V22.3193ZM54.001 22.3193V20.4015H54.2266H54.4522V22.3193V24.2372H54.2266H54.001V22.3193ZM56.3325 22.3193V20.4015H56.5531C56.7509 20.4015 56.8775 20.5391 57.7812 21.7364C58.3353 22.4707 58.8273 23.1391 58.8745 23.2219C58.941 23.3384 58.9608 23.0381 58.9626 21.8869L58.9648 20.4015H59.228H59.4913V22.3193V24.2372H59.239C58.9989 24.2372 58.9331 24.1658 57.8852 22.7686L56.7837 21.3001V22.7686V24.2372H56.5581H56.3325L56.3325 22.3193ZM64.6215 24.1523C64.2653 24.0496 63.8186 23.5566 63.6945 23.1293C63.5445 22.613 63.5748 21.7841 63.7589 21.368C64.0551 20.6983 64.5677 20.382 65.3595 20.3804C66.2454 20.3784 66.8172 20.7814 67.0563 21.5758C67.3645 22.5998 66.9876 23.7499 66.2313 24.0933C65.8913 24.2477 65.0582 24.2782 64.6215 24.1523L64.6215 24.1523ZM66.1105 23.5599C66.4726 23.302 66.5957 22.9971 66.596 22.3569C66.5966 21.4421 66.2464 20.9503 65.538 20.8704C65.0109 20.811 64.573 21.0165 64.3251 21.4396C64.1544 21.7309 64.1214 21.8745 64.1234 22.3169C64.1263 23.0167 64.3335 23.4352 64.7793 23.6442C65.1801 23.832 65.7817 23.7939 66.1105 23.5599V23.5599ZM68.8174 22.3146V20.3919L69.0581 20.4155C69.2737 20.4366 69.4087 20.5847 70.3555 21.838L71.4122 23.2369L71.4326 21.8192L71.4531 20.4015H71.7147H71.9763V22.3193V24.2372H71.7293C71.4962 24.2372 71.4224 24.1568 70.4132 22.8037L69.344 21.3703V22.8037V24.2372H69.0807H68.8175L68.8174 22.3146ZM73.7813 22.3194V20.4016H75.1727H76.5641V20.6272V20.8528H75.4359H74.3078V21.4545V22.0562H75.3231H76.3384V22.3194V22.5827H75.3231H74.3078V23.1467V23.7108H75.4359H76.5641V23.974V24.2373H75.1727H73.7813V22.3194ZM81.4523 24.167C81.1631 24.0791 80.8137 23.8846 80.7012 23.7491C80.614 23.644 80.6271 23.5998 80.795 23.4318L80.9902 23.2367L81.2238 23.4332C81.644 23.7868 82.2733 23.8778 82.8109 23.6627C83.3325 23.454 83.3647 23.0204 82.8773 22.7684C82.7532 22.7042 82.3693 22.5699 82.0242 22.4698C80.987 22.1693 80.7007 21.925 80.7007 21.3408C80.7007 21.0134 81.0518 20.5974 81.4377 20.4675C81.932 20.3012 82.6673 20.3525 83.1463 20.5869C83.3792 20.7009 83.5889 20.844 83.6122 20.9049C83.6736 21.0647 83.3596 21.3606 83.2297 21.2654C82.7796 20.9356 82.6775 20.8942 82.2502 20.8679C81.8629 20.844 81.7502 20.8676 81.5285 21.0181C80.9782 21.3919 81.1767 21.6643 82.2358 21.989C83.4842 22.3718 83.7467 22.5853 83.7467 23.2178C83.7467 23.8942 83.2366 24.2371 82.2425 24.2292C81.9116 24.2262 81.556 24.1985 81.4523 24.167L81.4523 24.167ZM85.3637 22.3194V20.4015H86.7927H88.2217V20.6272V20.8528H87.0559H85.8901V21.4545V22.0562H86.9431H87.996V22.3194V22.5827H86.9431H85.8901V23.1467V23.7108H87.0559H88.2217V23.974V24.2373H86.7927H85.3637V22.3194ZM89.9515 22.3126V20.3877L91.0232 20.4151C91.87 20.4366 92.147 20.4704 92.3428 20.5762C93.0284 20.9465 93.0782 22.0615 92.4241 22.3997C92.1923 22.5196 92.1921 22.5202 92.3523 22.6324C92.5021 22.7373 93.1856 23.991 93.1856 24.1609C93.1856 24.203 93.0669 24.2376 92.9218 24.2376C92.6661 24.2376 92.6484 24.2183 92.3454 23.6072C91.9661 22.8425 91.7976 22.7231 91.0287 22.6737L90.478 22.6384V23.438V24.2376H90.2148H89.9515L89.9515 22.3126ZM92.1129 22.0073C92.2833 21.8801 92.3206 21.7942 92.3206 21.53C92.3206 21.0426 92.1084 20.9179 91.1985 20.8703L90.478 20.8325V21.5287V22.2248L91.1916 22.1935C91.7627 22.1685 91.9466 22.1314 92.1129 22.0072V22.0073ZM95.7764 23.9931C95.7134 23.8587 95.3467 23.0041 94.9613 22.0941L94.2606 20.4394L94.5227 20.4155C94.6668 20.4023 94.8088 20.4193 94.8382 20.4531C94.8676 20.4869 95.1745 21.1965 95.5201 22.0299L96.1485 23.5451L96.4285 22.8572C96.5825 22.4788 96.8732 21.78 97.0745 21.3043L97.4406 20.4394L97.7198 20.4161C97.8734 20.4033 97.999 20.4131 97.999 20.4376C97.999 20.4622 97.6391 21.3273 97.1992 22.36L96.3994 24.2375H96.145C95.9317 24.2375 95.8723 24.1982 95.7764 23.9931V23.9931ZM99.5032 22.3197V20.4018H99.7664H100.03V22.3197V24.2375H99.7664H99.5032V22.3197ZM102.711 24.1278C102.353 24.0001 102.094 23.764 101.884 23.3726C101.749 23.122 101.722 22.9463 101.722 22.3197C101.722 21.6311 101.74 21.5373 101.933 21.2087C102.049 21.0112 102.273 20.7685 102.43 20.6692C103.136 20.2231 104.387 20.307 104.862 20.8324C104.988 20.9713 104.985 20.9849 104.811 21.1489L104.628 21.3203L104.352 21.1098C103.732 20.6365 102.736 20.8456 102.383 21.523C102.148 21.9757 102.146 22.6488 102.38 23.1123C102.747 23.8386 103.851 24.0056 104.486 23.4307C104.615 23.3144 104.636 23.3187 104.816 23.4993L105.009 23.692L104.746 23.8926C104.601 24.003 104.37 24.1257 104.231 24.1654C103.871 24.2688 103.05 24.2485 102.712 24.1279L102.711 24.1278ZM106.498 22.3197V20.4018H107.927H109.356V20.6274V20.8531H108.19H107.024V21.4548V22.0564H108.077H109.13V22.3197V22.5829H108.077H107.024V23.147V23.7111H108.19H109.356V23.9743V24.2375H107.927H106.498V22.3197ZM111.678 24.1337C111.354 24.0177 110.86 23.7215 110.86 23.6428C110.86 23.6121 110.94 23.5114 111.038 23.4192L111.217 23.2514L111.493 23.439C111.902 23.7161 112.257 23.811 112.693 23.7594C113.145 23.7059 113.446 23.5079 113.478 23.2436C113.512 22.9549 113.155 22.7054 112.426 22.5091C111.391 22.2302 111.036 21.9901 110.966 21.5205C110.916 21.1845 111.126 20.7873 111.454 20.5975C112.046 20.2557 113.093 20.313 113.652 20.7177L113.963 20.9432L113.768 21.138C113.586 21.3205 113.565 21.325 113.436 21.2086C112.923 20.7439 111.792 20.7523 111.54 21.2228C111.361 21.5569 111.603 21.7194 112.844 22.1006C113.348 22.2556 113.575 22.3698 113.773 22.568C114.02 22.8149 114.034 22.8541 114.002 23.232C113.964 23.6952 113.821 23.8933 113.38 24.0961C113.02 24.2613 112.093 24.2818 111.678 24.1337V24.1337ZM19.9718 15.729C18.2794 15.5664 16.9409 14.9569 15.8694 13.861C14.9891 12.9606 14.4273 11.8331 14.086 10.2819C13.8957 9.4165 13.8971 6.93026 14.0883 6.03664C14.8183 2.62698 16.9083 0.681834 20.1355 0.408442C22.9582 0.169309 25.2272 1.0775 26.5865 2.99062C27.6724 4.51884 28.1886 6.78651 27.9788 9.10704C27.6209 13.0669 25.4819 15.3698 21.8217 15.736C20.964 15.8219 20.9377 15.8218 19.9717 15.7293L19.9718 15.729ZM22.3724 13.8894C24.0781 13.5484 25.3924 12.223 25.8752 10.3569C26.1891 9.14351 26.1873 7.20172 25.871 5.94958C25.368 3.95791 24.0569 2.61145 22.2479 2.22882C21.4165 2.05298 19.9213 2.11937 19.173 2.36535C17.3066 2.97885 16.1409 4.60739 15.8722 6.97677C15.6686 8.77182 15.8701 10.2012 16.5111 11.5064C17.5012 13.5226 19.7115 14.4212 22.3724 13.8894ZM36.0633 15.7295C32.0892 15.3526 29.8454 12.3493 30.0298 7.65366C30.1971 3.39329 32.4794 0.726506 36.2306 0.408366C37.1995 0.326192 38.3984 0.408934 39.1916 0.612932C41.7108 1.26055 43.4678 3.31054 43.9558 6.17171C44.3435 8.44443 44.0809 10.5836 43.1979 12.3463C42.8372 13.0663 42.6716 13.3018 42.1612 13.8208C41.0229 14.9781 39.735 15.5628 37.9394 15.7374C37.097 15.8193 37.0066 15.8189 36.0633 15.7296V15.7295ZM38.463 13.8903C40.185 13.5462 41.4489 12.2842 41.964 10.3945C42.2885 9.20415 42.2909 7.1772 41.9693 5.92789C41.4599 3.94875 40.1522 2.61137 38.3546 2.23127C37.4753 2.04534 36.0133 2.11472 35.2448 2.37885C33.5186 2.97214 32.4842 4.28209 32.0298 6.4503C31.9742 6.71589 31.9359 7.4431 31.9369 8.21774C31.9384 9.39094 31.9596 9.61218 32.1319 10.2543C32.7407 12.5234 34.1685 13.783 36.3742 13.9966C37.0829 14.0652 37.7597 14.0308 38.463 13.8903H38.463ZM86.9431 15.7387C84.1482 15.4698 82.0701 13.9865 81.1818 11.6266C80.8125 10.6455 80.692 9.97806 80.6479 8.66901C80.5704 6.37266 80.9535 4.77322 81.934 3.29972C83.3381 1.18953 85.8184 0.154775 88.8821 0.401051C90.954 0.567596 92.461 1.18211 93.558 2.30768L93.8928 2.65125L93.6332 2.92166C93.4904 3.07038 93.1786 3.36198 92.9402 3.56965L92.5068 3.94724L91.9982 3.46748C91.4298 2.93124 90.681 2.5276 89.8387 2.30343C89.0936 2.10513 86.9748 2.1052 86.2662 2.30355C84.2239 2.87523 82.9956 4.35187 82.6108 6.69797C82.4474 7.6946 82.5024 9.44181 82.7238 10.286C83.3689 12.7457 85.097 14.0052 87.8456 14.0191C89.9164 14.0296 91.4052 13.1336 92.2408 11.374C92.5083 10.8107 92.7343 9.88592 92.7343 9.35433C92.7343 9.20077 92.7749 9.03453 92.8246 8.98489C92.8948 8.91469 92.3516 8.89461 90.3802 8.89461H87.8456V8.02969V7.16477H91.1173H94.3889V11.3765V15.5883H93.5992H92.8095V14.5295V13.4707L92.3018 13.988C90.9443 15.3712 89.1649 15.9525 86.9431 15.7387L86.9431 15.7387ZM0 8.06314V0.537928L4.04255 0.562374L8.08511 0.58682L8.69269 0.791371C10.0721 1.25579 10.8891 2.07527 11.2845 3.39119C11.4257 3.86087 11.4454 4.07177 11.4182 4.82018C11.3911 5.56694 11.3569 5.7624 11.189 6.12782C10.9271 6.69785 10.6501 7.04112 10.1725 7.38728L9.77797 7.67326L10.0165 7.77206C10.3306 7.90214 11.0997 8.52292 11.3336 8.83516C11.839 9.50963 12.1068 10.3641 12.1064 11.3013C12.1056 13.507 10.8718 14.9803 8.63957 15.4409C7.99522 15.5739 7.59395 15.5864 3.96734 15.5873L0 15.5882V8.06314ZM8.10262 13.7689C9.2681 13.5542 9.9669 12.929 10.1549 11.9329C10.3786 10.747 9.99726 9.75245 9.11587 9.22335C8.37091 8.77614 8.08066 8.74422 4.7604 8.74422H1.76744V11.3014V13.8585H4.69197C6.63197 13.8585 7.78015 13.8283 8.10262 13.7689V13.7689ZM7.14 6.9367C8.74304 6.76789 9.5517 5.98682 9.5517 4.60731C9.5517 3.93983 9.3449 3.37416 8.96931 3.01432C8.26712 2.34154 7.8848 2.27828 4.51262 2.27686L1.76744 2.2757L1.78842 4.54051C1.80349 6.16616 1.78492 6.83478 1.7228 6.90968C1.64925 6.99831 1.99741 7.01383 4.03334 7.01272C5.35176 7.01216 6.74976 6.97781 7.14 6.93669L7.14 6.9367ZM46.7808 8.06698V0.545953H47.6833H48.5858V8.06698V15.588H47.6833H46.7808V8.06698ZM55.009 14.514C54.4339 13.9232 52.7687 12.2166 51.3085 10.7214L48.6537 8.00281L52.2817 4.27438L55.9097 0.545953H57.174C57.8694 0.545953 58.4384 0.571476 58.4384 0.602652C58.4384 0.633838 56.7969 2.30056 54.7907 4.30647L51.143 7.9536L54.9596 11.7708L58.7763 15.588H57.4155H56.0547L55.009 14.514ZM60.3939 8.06698V0.545953H61.2964H62.1989V8.06698V15.588H61.2964H60.3939V8.06698ZM65.5834 8.06698V0.545953H66.4295H67.2757L71.1114 5.63219C73.221 8.42962 75.2093 11.1118 75.5298 11.5926L76.1126 12.4668V6.50637V0.545953H77.0527H77.9928V8.06698V15.588H77.1404H76.2881L72.421 10.4615C70.2943 7.64197 68.3003 4.94301 67.9901 4.46384L67.426 3.59262L67.4067 9.59031L67.3875 15.588H66.4854H65.5834L65.5834 8.06698ZM97.623 8.06698V0.545953H98.5643H99.5056L99.4856 7.20207L99.4657 13.8582L103.659 13.8582L107.852 13.8582V14.7231V15.588H102.737H97.623L97.623 8.06698ZM108.378 15.5373C108.378 15.5071 109.856 12.1207 111.663 8.01203L114.947 0.541769L115.928 0.562666L116.908 0.583565L120.2 8.06699C122.011 12.1829 123.493 15.5589 123.494 15.5692C123.494 15.5796 123.044 15.588 122.492 15.588H121.488L120.685 13.7782C120.244 12.7827 119.902 11.9366 119.926 11.8979C119.953 11.8545 118.423 11.8275 115.941 11.8275C112.156 11.8275 111.913 11.8352 111.91 11.9591C111.908 12.0315 111.561 12.8692 111.137 13.8206L110.368 15.5504L109.373 15.5714C108.826 15.5829 108.378 15.5675 108.378 15.5373V15.5373ZM119.028 9.92844C118.764 9.51761 116.376 3.96702 116.162 3.2679L115.925 2.49256L115.711 3.19268C115.539 3.7577 113.253 9.09567 112.843 9.89083L112.736 10.0977H115.936H119.137L119.028 9.92844ZM125.376 8.06698V0.545953L126.222 0.550026L127.068 0.554099L131.035 5.83354C133.217 8.73724 135.197 11.4168 135.435 11.7882L135.867 12.4634L135.887 6.50469L135.906 0.545935H136.846H137.785V8.06935V15.5928L136.91 15.5716L136.034 15.5505L132.204 10.4738C130.097 7.68159 128.105 4.99094 127.778 4.49455L127.183 3.59203V9.59005V15.5881H126.28H125.378L125.376 8.06698ZM141.019 8.06698V0.545953H146.51H152V1.41087V2.27579L147.393 2.27575L142.787 2.27571L142.807 4.71946L142.828 7.16319L147.019 7.18268L151.21 7.20208L151.231 8.0858L151.253 8.96951H147.04H142.828L142.807 11.4139L142.787 13.8583L147.393 13.8582L152 13.8582V14.7231V15.588H146.51H141.019V8.06698Z" fill="white"/>
</svg>
