<svg width="198" height="31" viewBox="0 0 198 31" fill="none" xmlns="http://www.w3.org/2000/svg">
<path d="M55.5485 22.9224C53.7225 22.7433 52.2784 22.072 51.1222 20.8649C50.1724 19.8732 49.5663 18.6313 49.1981 16.9226C48.9927 15.9695 48.9942 13.231 49.2005 12.2467C49.9882 8.49109 52.2431 6.34859 55.7251 6.04746C58.7707 5.78406 61.2188 6.7844 62.6855 8.89163C63.8571 10.5749 64.414 13.0727 64.1877 15.6286C63.8015 19.9903 61.4936 22.5268 57.5445 22.9302C56.6191 23.0247 56.5908 23.0243 55.5485 22.9224ZM58.1387 20.8962C59.979 20.5207 61.3971 19.0607 61.918 17.0053C62.2567 15.6688 62.2547 13.53 61.9135 12.1508C61.3708 9.95706 59.9561 8.47399 58.0043 8.05253C57.1073 7.85885 55.4941 7.93198 54.6867 8.20292C52.673 8.87866 51.4152 10.6724 51.1252 13.2822C50.9055 15.2594 51.123 16.8338 51.8146 18.2714C52.8829 20.4922 55.2676 21.482 58.1387 20.8962ZM72.9104 22.923C68.6226 22.5079 66.2016 19.1998 66.4006 14.0278C66.5811 9.33515 69.0436 6.39779 73.0909 6.04737C74.1363 5.95686 75.4298 6.048 76.2857 6.2727C79.0038 6.98602 80.8995 9.24401 81.426 12.3955C81.8443 14.8988 81.561 17.255 80.6083 19.1965C80.2191 19.9896 80.0405 20.2489 79.4897 20.8206C78.2616 22.0954 76.872 22.7394 74.9346 22.9317C74.0257 23.0219 73.9282 23.0213 72.9104 22.923ZM75.4995 20.8972C77.3575 20.5182 78.7212 19.1281 79.277 17.0467C79.627 15.7356 79.6297 13.503 79.2827 12.1269C78.7331 9.94697 77.3221 8.4739 75.3826 8.05523C74.4339 7.85044 72.8564 7.92686 72.0273 8.21778C70.1648 8.87127 69.0488 10.3141 68.5585 12.7023C68.4984 12.9949 68.4572 13.7959 68.4583 14.6491C68.4598 15.9413 68.4827 16.185 68.6686 16.8923C69.3255 19.3916 70.8661 20.779 73.2458 21.0143C74.0106 21.0899 74.7407 21.052 75.4995 20.8972ZM127.807 22.9332C124.792 22.637 122.549 21.0032 121.591 18.4038C121.192 17.3232 121.062 16.588 121.015 15.1461C120.931 12.6168 121.345 10.8551 122.402 9.23209C123.917 6.90779 126.594 5.76805 129.899 6.03932C132.135 6.22276 133.761 6.89963 134.944 8.13939L135.305 8.51782L135.025 8.81567C134.871 8.97948 134.535 9.30066 134.278 9.52941L133.81 9.94531L133.261 9.41687C132.648 8.82622 131.84 8.38163 130.931 8.13471C130.127 7.91629 127.841 7.91637 127.077 8.13485C124.873 8.76453 123.548 10.391 123.133 12.9751C122.956 14.0729 123.016 15.9974 123.255 16.9272C123.951 19.6365 125.815 21.0238 128.781 21.0391C131.015 21.0506 132.621 20.0637 133.523 18.1256C133.812 17.5052 134.055 16.4865 134.055 15.901C134.055 15.7319 134.099 15.5488 134.153 15.4941C134.229 15.4168 133.642 15.3946 131.516 15.3946H128.781V14.442V13.4893H132.311H135.841V18.1284V22.7675H134.989H134.137V21.6013V20.4351L133.589 21.0048C132.124 22.5283 130.204 23.1687 127.807 22.9332ZM34 14.4788V6.19008L38.3617 6.21701L42.7234 6.24393L43.379 6.46924C44.8673 6.98078 45.7488 7.88341 46.1754 9.33283C46.3277 9.85017 46.349 10.0825 46.3197 10.9068C46.2904 11.7293 46.2534 11.9446 46.0723 12.3471C45.7898 12.975 45.4909 13.3531 44.9756 13.7344L44.5499 14.0494L44.8073 14.1582C45.1461 14.3015 45.976 14.9852 46.2284 15.3292C46.7737 16.0721 47.0626 17.0132 47.0622 18.0456C47.0613 20.475 45.7301 22.0978 43.3216 22.6051C42.6264 22.7516 42.1935 22.7654 38.2806 22.7664L34 22.7674V14.4788ZM42.7423 20.7635C43.9998 20.527 44.7538 19.8384 44.9566 18.7412C45.198 17.4349 44.7865 16.3395 43.8355 15.7567C43.0318 15.2642 42.7186 15.229 39.1362 15.229H35.907V18.0456V20.8622H39.0624C41.1555 20.8622 42.3944 20.829 42.7423 20.7635ZM41.7037 13.2381C43.4333 13.0521 44.3058 12.1918 44.3058 10.6723C44.3058 9.93714 44.0827 9.31408 43.6774 8.91773C42.9198 8.17669 42.5073 8.10701 38.8689 8.10545L35.907 8.10416L35.9296 10.5988C35.9459 12.3894 35.9258 13.1258 35.8588 13.2083C35.7795 13.3059 36.1551 13.323 38.3518 13.3218C39.7743 13.3212 41.2826 13.2834 41.7037 13.2381ZM84.474 14.483V6.19892H85.4478H86.4216V14.483V22.7672H85.4478H84.474V14.483ZM93.3519 21.5841C92.7313 20.9335 90.9346 19.0537 89.3592 17.4067L86.4947 14.4124L90.4092 10.3056L94.3236 6.19892H95.6878C96.4381 6.19892 97.0519 6.22703 97.0519 6.26137C97.0519 6.29572 95.2809 8.13155 93.1163 10.341L89.1806 14.3582L93.2985 18.5627L97.4165 22.7672H95.9483H94.4801L93.3519 21.5841ZM99.1618 14.483V6.19892H100.136H101.109V14.483V22.7672H100.136H99.1618V14.483ZM104.761 14.483V6.19892H105.674H106.587L110.725 11.8012C113.002 14.8825 115.147 17.8368 115.493 18.3664L116.121 19.3292V12.7641V6.19892H117.136H118.15V14.483V22.7672H117.23H116.311L112.138 17.1205C109.844 14.0149 107.692 11.0421 107.358 10.5143L106.749 9.5547L106.728 16.1609L106.708 22.7672H105.734H104.761L104.761 14.483ZM139.33 14.483V6.19892H140.346H141.361L141.34 13.5304L141.318 20.8618L145.842 20.8618L150.366 20.8618V21.8145V22.7672H144.848H139.33L139.33 14.483ZM150.934 22.7113C150.934 22.678 152.529 18.948 154.478 14.4225L158.022 6.19431L159.08 6.21733L160.137 6.24035L163.69 14.483C165.644 19.0165 167.243 22.7351 167.244 22.7465C167.244 22.7579 166.758 22.7672 166.162 22.7672H165.079L164.213 20.7737C163.736 19.6772 163.368 18.7453 163.394 18.7026C163.423 18.6549 161.772 18.6251 159.094 18.6251C155.01 18.6251 154.748 18.6336 154.745 18.7701C154.743 18.8497 154.368 19.7725 153.911 20.8204L153.081 22.7257L152.008 22.7488C151.417 22.7615 150.934 22.7446 150.934 22.7113ZM162.425 16.5334C162.14 16.0808 159.563 9.9671 159.333 9.19703L159.077 8.34303L158.847 9.11419C158.66 9.73653 156.194 15.6161 155.752 16.4919L155.637 16.7198H159.089H162.542L162.425 16.5334ZM169.274 14.483V6.19892L170.187 6.20341L171.099 6.20789L175.38 12.023C177.735 15.2213 179.871 18.1728 180.127 18.5818L180.594 19.3256L180.615 12.7622L180.635 6.1989H181.649H182.663V14.4857V22.7724L181.718 22.7491L180.773 22.7258L176.641 17.1341C174.368 14.0585 172.219 11.0949 171.866 10.5481L171.224 9.55406V16.1606V22.7672H170.25H169.276L169.274 14.483ZM186.152 14.483V6.19892H192.076H198V7.1516V8.10427L193.03 8.10423L188.059 8.10418L188.082 10.7959L188.104 13.4875L192.626 13.509L197.148 13.5304L197.171 14.5038L197.194 15.4771H192.649H188.104L188.082 18.1695L188.059 20.8619L193.03 20.8619L198 20.8618V21.8145V22.7672H192.076H186.152V14.483Z" fill="white"/>
<path d="M4.91493 0H14.5504C14.5889 0.00959759 14.6268 0.0234859 14.666 0.0281153C17.1733 0.330609 19.2441 1.46685 20.8289 3.40906C22.351 5.27427 23.0567 7.44253 22.8957 9.86598C22.8869 9.99775 22.9145 10.0892 23.0137 10.1809C23.2714 10.4194 23.5278 10.6609 23.7662 10.9182C24.8607 12.0996 25.6833 13.4442 26.196 14.9761C26.486 15.8429 26.6509 16.7348 26.7747 17.6366V19.6495C26.7388 19.9261 26.7096 20.2036 26.6659 20.4788C26.4457 21.8651 25.9804 23.1661 25.2978 24.3914C24.3905 26.0194 23.149 27.3433 21.616 28.3921C20.1282 29.4098 18.4806 30.0268 16.6996 30.2952C15.9553 30.4074 15.2088 30.4859 14.4598 30.3731C12.6111 30.095 11.3797 28.9812 10.5398 27.3898C10.007 26.3805 9.8767 25.2627 9.84451 24.1389C9.81503 23.1093 9.81458 22.0787 9.81063 21.0486C9.79361 15.945 9.80001 10.8413 9.82983 5.73766C9.83197 5.42727 9.82508 5.11122 9.77008 4.80726C9.37502 2.62342 7.50282 1.11784 5.24697 1.29917C4.12627 1.38883 3.19622 1.87435 2.42541 2.67027C1.60298 3.52085 1.29003 4.56642 1.29093 5.73224C1.2953 11.7784 1.29605 17.8246 1.29319 23.8707C1.29319 24.5015 1.30064 25.1335 1.38456 25.759C1.57057 27.1443 2.13549 28.356 3.09299 29.38C3.43509 29.7459 3.8053 30.0765 4.28484 30.271C4.23323 30.2997 4.19449 30.3087 4.15711 30.3049C4.08579 30.2981 4.01509 30.286 3.94557 30.2688C3.06013 30.034 2.33912 29.5252 1.71931 28.8757C0.552534 27.6529 -0.00504785 26.1995 3.4425e-05 24.4939C0.01946 18.0886 0.00726254 11.6829 0.0088437 5.27732C0.0088437 5.07825 0.0103119 4.87569 0.0448714 4.68069C0.3768 2.80554 1.40342 1.44641 3.09774 0.580936C3.67339 0.286798 4.28654 0.122736 4.91493 0ZM9.22131 1.30719C9.38835 1.47035 9.5756 1.59072 9.67476 1.762C9.97653 2.28321 10.4187 2.36575 10.9819 2.35401C12.1775 2.32916 13.3782 2.27305 14.5702 2.43022C16.2756 2.65503 17.6987 3.4435 18.8167 4.72563C20.1407 6.2452 20.7045 8.04074 20.4618 10.0531C20.2032 12.1972 19.0979 13.8018 17.2431 14.8873C16.1143 15.5481 14.8787 15.8304 13.5753 15.8304C12.8405 15.8304 12.1056 15.8342 11.3708 15.8285C11.188 15.8271 11.1046 15.8893 11.115 16.0789C11.1246 16.2541 11.1285 16.4312 11.1139 16.6056C11.0949 16.835 11.1824 16.9161 11.4143 16.9132C12.2128 16.903 13.0119 16.8982 13.8104 16.912C15.1898 16.9358 16.4724 16.5567 17.6599 15.9039C20.3479 14.426 21.9711 11.5515 21.5292 8.27594C21.1113 5.17389 19.3767 3.03848 16.5021 1.82411C15.6089 1.44686 14.6712 1.27851 13.7006 1.2793C12.2392 1.28054 10.7776 1.2723 9.31618 1.26891C9.30206 1.26914 9.2876 1.2802 9.22131 1.30719ZM12.5473 27.9998C13.0103 28.4853 13.5391 28.8088 14.1623 28.9767C14.8865 29.1715 15.618 29.1291 16.3488 29.0312C18.1168 28.7941 19.7204 28.1431 21.1683 27.1047C22.712 25.9982 23.8381 24.5516 24.611 22.8269C25.2166 21.4753 25.5127 20.0526 25.5032 18.5719C25.4927 17.005 25.118 15.5208 24.419 14.1217C23.9898 13.2632 23.4379 12.4717 22.7807 11.7722C22.6493 11.6319 22.5911 11.6412 22.5374 11.83C22.4723 12.0599 22.4007 12.2912 22.2993 12.5068C22.1784 12.764 22.2265 12.9511 22.4033 13.1742C24.0522 15.2556 24.6003 17.6405 24.1691 20.2238C23.7313 22.8474 22.3569 24.9162 20.1474 26.4096C18.8451 27.2903 17.4009 27.784 15.8331 27.9144C14.8363 27.9974 13.8377 27.9417 12.8402 27.9602C12.7543 27.9613 12.6654 27.939 12.5476 27.9992L12.5473 27.9998ZM12.6136 3.65634C12.0534 3.65634 11.566 3.663 11.0792 3.65318C10.8697 3.649 10.8319 3.72522 10.8894 3.91175C10.9489 4.10197 10.9942 4.29633 11.025 4.49325C11.0567 4.70203 11.1449 4.78761 11.3699 4.78378C12.1363 4.77068 12.9031 4.77576 13.6697 4.77982C14.6372 4.78502 15.5111 5.09733 16.2776 5.66822C17.4718 6.55639 18.0703 7.77551 18.0703 9.25535C18.0692 10.8926 17.3008 12.102 15.8689 12.8846C15.1445 13.2805 14.3525 13.4153 13.5354 13.4195C12.8327 13.4234 12.1298 13.4195 11.4271 13.4213C11.1357 13.4222 11.1193 13.4418 11.1177 13.7387C11.1168 13.9063 11.127 14.0747 11.1152 14.2415C11.1001 14.4536 11.1942 14.5214 11.3966 14.5193C12.251 14.5109 13.1055 14.5111 13.9604 14.5103C14.2732 14.5103 14.5815 14.4686 14.8865 14.4054C17.711 13.8201 19.4623 11.4559 19.1819 8.60949C18.9591 6.34863 17.1377 4.32038 14.8777 3.795C14.1027 3.61513 13.321 3.66842 12.6136 3.65578V3.65634ZM13.4162 25.5994C12.841 25.5994 12.2658 25.6015 11.6907 25.5981C11.5018 25.597 11.421 25.6597 11.4845 25.8589C11.5427 26.0414 11.5917 26.2266 11.6313 26.4139C11.6732 26.6132 11.7818 26.6812 11.9856 26.6791C12.9117 26.6702 13.8393 26.6904 14.7655 26.6701C15.4746 26.6543 16.1832 26.6067 16.8789 26.4385C18.5738 26.0292 19.9961 25.1601 21.1105 23.8336C22.4834 22.2001 23.1117 20.3008 22.9804 18.1575C22.8924 16.7228 22.4139 15.434 21.5934 14.262C21.4984 14.1265 21.4456 14.1619 21.3703 14.271C21.2524 14.4419 21.1438 14.6238 21.0001 14.7707C20.8273 14.9474 20.8403 15.0838 20.9676 15.2878C21.8475 16.6992 22.101 18.2364 21.822 19.8632C21.5638 21.3691 20.862 22.6505 19.7539 23.6953C18.6914 24.697 17.4313 25.3159 15.9756 25.5161C15.1252 25.6329 14.2698 25.5886 13.4162 25.5988V25.5994ZM13.4074 23.1621C12.6634 23.1621 12.0408 23.1615 11.4179 23.1621C11.2977 23.1621 11.1642 23.1478 11.1796 23.339C11.1962 23.5456 11.2096 23.7527 11.2183 23.96C11.2279 24.1898 11.3154 24.2899 11.5719 24.2866C12.7055 24.2722 13.8394 24.2846 14.9732 24.2774C15.2675 24.2755 15.5658 24.2625 15.8551 24.2127C17.7429 23.8871 19.163 22.8937 20.0124 21.1687C20.8273 19.5136 20.8544 17.8403 19.9761 16.1824C19.8759 15.9932 19.7972 16.0067 19.6578 16.1269C19.5009 16.2624 19.3371 16.392 19.163 16.5038C19.0025 16.6068 18.9792 16.7085 19.0693 16.8773C19.3808 17.4603 19.5024 18.0933 19.4969 18.7476C19.4788 20.8657 17.9073 22.704 15.8192 23.0715C14.9781 23.2193 14.1306 23.1336 13.4074 23.1616V23.1621ZM12.7161 12.1143C13.1356 12.0942 13.6535 12.1329 14.1721 12.072C15.8916 11.8697 16.9623 10.3761 16.7598 8.89572C16.5815 7.59214 15.5446 6.37291 14.2372 6.16244C13.2639 6.0056 12.2769 6.11728 11.2961 6.09808C11.1638 6.09548 11.1168 6.1778 11.1174 6.30132C11.1189 6.54871 11.1221 6.79633 11.1159 7.04361C11.1117 7.20801 11.1823 7.27384 11.3448 7.27102C11.6561 7.26571 11.9677 7.26368 12.2789 7.27102C12.8766 7.2857 13.4769 7.22122 14.0717 7.32251C14.8771 7.45958 15.5187 8.11143 15.6132 8.88511C15.7168 9.73274 15.2744 10.5043 14.4851 10.8265C14.1639 10.9577 13.8204 10.99 13.4748 10.9903C12.7801 10.9908 12.0857 10.9969 11.3908 10.9883C11.1816 10.9857 11.1014 11.0599 11.1144 11.2678C11.1257 11.4671 11.126 11.6669 11.1151 11.8662C11.1059 12.0565 11.191 12.1197 11.3721 12.1168C11.7873 12.1091 12.2026 12.1137 12.7161 12.1137V12.1143ZM13.3232 21.8451C13.8663 21.8451 14.4094 21.8473 14.9525 21.8451C16.3876 21.8385 17.3807 21.1426 17.9463 19.8525C18.2805 19.0906 18.2626 18.3002 17.9427 17.5221C17.8667 17.337 17.7722 17.3031 17.5951 17.3927C17.4238 17.4787 17.245 17.5489 17.061 17.6023C16.8501 17.6641 16.792 17.7296 16.8977 17.9655C17.4575 19.2153 16.9289 20.5322 15.4026 20.7304C14.7116 20.8201 14.0146 20.7563 13.3204 20.7658C12.6735 20.7747 12.0265 20.7728 11.3796 20.765C11.1824 20.7627 11.1025 20.834 11.1149 21.0316C11.127 21.207 11.127 21.383 11.1149 21.5583C11.0975 21.7806 11.1898 21.8519 11.4068 21.8492C12.0451 21.8385 12.6843 21.8447 13.3232 21.8446V21.8451ZM13.2848 18.2285V18.25C12.6621 18.25 12.0395 18.2536 11.417 18.2481C11.1948 18.2461 11.096 18.3291 11.1137 18.5613C11.1292 18.7684 11.1292 18.9763 11.1137 19.1834C11.0969 19.4109 11.1763 19.4929 11.4117 19.4908C12.5134 19.4808 13.6153 19.489 14.7172 19.4842C14.9639 19.4832 15.2134 19.4698 15.4513 19.3922C15.7207 19.3042 15.8302 19.124 15.8024 18.8422C15.7596 18.4069 15.5815 18.2395 15.1057 18.2311C14.4986 18.2198 13.8916 18.228 13.2848 18.228V18.2285ZM12.5304 9.7105C12.8886 9.68792 13.3287 9.75092 13.7651 9.67662C14.1432 9.61181 14.3185 9.42054 14.3001 9.09693C14.2835 8.80516 14.0675 8.59831 13.7094 8.59165C12.9194 8.57697 12.129 8.58589 11.3388 8.58261C11.174 8.58193 11.1118 8.66063 11.116 8.81973C11.1217 9.03505 11.1249 9.25106 11.115 9.46604C11.1062 9.65799 11.192 9.71772 11.373 9.71355C11.7321 9.70485 12.0914 9.7105 12.5304 9.7105Z" fill="white"/>
<path d="M6.81864 30.2731C6.59592 30.327 6.40178 30.2473 6.21102 30.1736C4.90002 29.6668 3.96692 28.7365 3.28183 27.5358C2.7893 26.6728 2.54354 25.7487 2.5449 24.7469C2.55325 18.3255 2.55491 11.9042 2.54987 5.48293C2.54987 4.01055 3.55672 2.77032 4.99738 2.45473C6.78001 2.06394 8.57552 3.42691 8.67536 5.23814C8.69422 5.58151 8.69919 5.9242 8.69919 6.26745C8.69972 12.3294 8.69923 18.3913 8.69772 24.4532C8.69772 25.3864 8.78232 26.3037 9.11978 27.1814C9.53765 28.2668 10.1468 29.2174 11.0914 29.9251C11.1811 29.9918 11.2741 30.0539 11.3701 30.1112C11.4582 30.1644 11.5515 30.209 11.671 30.2726C11.5481 30.3276 11.454 30.2945 11.3586 30.2707C10.4495 30.0448 9.7231 29.5154 9.0938 28.8538C7.96113 27.6636 7.38288 26.2515 7.38627 24.5892C7.39824 18.2478 7.39964 11.9064 7.39045 5.56491C7.39045 4.61881 6.83614 3.91774 5.9516 3.73335C4.92498 3.51882 3.90649 4.31372 3.87295 5.35681C3.86392 5.63601 3.85921 5.91543 3.85883 6.19507C3.85801 12.1852 3.85801 18.1753 3.85883 24.1652C3.85883 24.9477 3.86527 25.7292 4.06687 26.4955C4.39609 27.7476 5.01172 28.8266 5.96798 29.7061C6.22119 29.9391 6.51325 30.1126 6.81864 30.2731Z" fill="white"/>
<path d="M9.32489 30.2712C9.14566 30.3223 9.04028 30.3015 8.93322 30.274C8.19437 30.0845 7.57117 29.6834 7.01483 29.1824C5.95568 28.2282 5.25365 27.0639 5.02585 25.6417C4.98082 25.3498 4.95892 25.0548 4.96035 24.7594C4.95673 18.4105 4.95594 12.0615 4.95798 5.71237C4.95798 5.49671 4.95075 5.27721 5.08808 5.09135C5.24688 4.87682 5.54808 4.76639 5.78831 4.82917C6.02853 4.89195 6.23295 5.13403 6.26367 5.4057C6.27711 5.52415 6.2718 5.64496 6.2718 5.76465C6.27301 12.1377 6.27538 18.5107 6.27892 24.8836C6.28163 26.4911 6.8374 27.9209 7.84629 29.1616C8.22565 29.6283 8.67662 30.0404 9.32489 30.2712Z" fill="white"/>
</svg>
